<svg id="visual" viewBox="0 0 1510 450" width="1510" height="450" xmlns="http://www.w3.org/2000/svg" xmlns:xlink="http://www.w3.org/1999/xlink" version="1.1"><path d="M0 349L36 346.3C72 343.7 144 338.3 215.8 331.7C287.7 325 359.3 317 431.2 319.7C503 322.3 575 335.7 647 340.2C719 344.7 791 340.3 863 335.3C935 330.3 1007 324.7 1078.8 327C1150.7 329.3 1222.3 339.7 1294.2 343.2C1366 346.7 1438 343.3 1474 341.7L1510 340L1510 451L1474 451C1438 451 1366 451 1294.2 451C1222.3 451 1150.7 451 1078.8 451C1007 451 935 451 863 451C791 451 719 451 647 451C575 451 503 451 431.2 451C359.3 451 287.7 451 215.8 451C144 451 72 451 36 451L0 451Z" fill="#764ebe"></path><path d="M0 349L36 353.7C72 358.3 144 367.7 215.8 368.3C287.7 369 359.3 361 431.2 359.2C503 357.3 575 361.7 647 361.5C719 361.3 791 356.7 863 353.8C935 351 1007 350 1078.8 353C1150.7 356 1222.3 363 1294.2 364.5C1366 366 1438 362 1474 360L1510 358L1510 451L1474 451C1438 451 1366 451 1294.2 451C1222.3 451 1150.7 451 1078.8 451C1007 451 935 451 863 451C791 451 719 451 647 451C575 451 503 451 431.2 451C359.3 451 287.7 451 215.8 451C144 451 72 451 36 451L0 451Z" fill="#a687d4"></path><path d="M0 403L36 400C72 397 144 391 215.8 390C287.7 389 359.3 393 431.2 396.5C503 400 575 403 647 401C719 399 791 392 863 392.2C935 392.3 1007 399.7 1078.8 398.2C1150.7 396.7 1222.3 386.3 1294.2 383.3C1366 380.3 1438 384.7 1474 386.8L1510 389L1510 451L1474 451C1438 451 1366 451 1294.2 451C1222.3 451 1150.7 451 1078.8 451C1007 451 935 451 863 451C791 451 719 451 647 451C575 451 503 451 431.2 451C359.3 451 287.7 451 215.8 451C144 451 72 451 36 451L0 451Z" fill="#d3c2ea"></path><path d="M0 398L36 399.5C72 401 144 404 215.8 406C287.7 408 359.3 409 431.2 408.2C503 407.3 575 404.7 647 406.5C719 408.3 791 414.7 863 419.5C935 424.3 1007 427.7 1078.8 426.5C1150.7 425.3 1222.3 419.7 1294.2 416.7C1366 413.7 1438 413.3 1474 413.2L1510 413L1510 451L1474 451C1438 451 1366 451 1294.2 451C1222.3 451 1150.7 451 1078.8 451C1007 451 935 451 863 451C791 451 719 451 647 451C575 451 503 451 431.2 451C359.3 451 287.7 451 215.8 451C144 451 72 451 36 451L0 451Z" fill="#ffffff"></path></svg>